<svg width="166" height="38" viewBox="0 0 166 38" fill="none" xmlns="http://www.w3.org/2000/svg">
<path d="M17.3544 11.3957V26.9563M17.3544 11.3957C20.3409 14.0462 22.9867 15.9189 25.2522 16.9886C26.3377 17.4997 27.319 17.5975 28.4297 17.1037C29.8312 16.4761 31.021 15.456 31.8553 14.1667C32.6896 12.8775 33.1327 11.3742 33.1311 9.83855C30.0894 11.9842 26.3282 10.8199 23.1681 8.82095C20.5808 7.18648 19.2871 6.36925 18.7065 6.45287C18.5181 6.46839 18.335 6.52264 18.1686 6.61223C18.0022 6.70182 17.856 6.82481 17.7394 6.9735C17.3544 7.41209 17.3544 8.74049 17.3544 11.3957ZM17.3544 26.9563C17.3544 28.63 16.6895 30.2351 15.5061 31.4186C14.3226 32.6021 12.7174 33.267 11.0437 33.267C9.37002 33.267 7.76487 32.6021 6.58139 31.4186C5.39791 30.2351 4.73303 28.63 4.73303 26.9563C4.73303 25.2826 5.39791 23.6774 6.58139 22.494C7.76487 21.3105 9.37002 20.6456 11.0437 20.6456C12.7174 20.6456 14.3226 21.3105 15.5061 22.494C16.6895 23.6774 17.3544 25.2826 17.3544 26.9563Z" stroke="#4A6CF7" stroke-width="4" stroke-linecap="round" stroke-linejoin="round"/>
<path d="M41.998 23.87H48.0028V26.1151H41.998V23.87ZM42.2118 29.0017H49.0006V31.3181H39.343V18.8452H48.769V21.1616H42.2118V29.0017Z" fill="white"/>
<path d="M55.6819 31.4606C54.6485 31.4606 53.7279 31.2528 52.9201 30.837C52.1123 30.4094 51.4768 29.8213 51.0135 29.073C50.5621 28.3246 50.3364 27.4753 50.3364 26.5249C50.3364 25.5627 50.5621 24.7134 51.0135 23.9769C51.4768 23.2285 52.1123 22.6465 52.9201 22.2307C53.7279 21.8031 54.6485 21.5892 55.6819 21.5892C56.6917 21.5892 57.5707 21.8031 58.3191 22.2307C59.0674 22.6465 59.6198 23.2464 59.9762 24.0304L57.8202 25.1886C57.5707 24.7372 57.2559 24.4045 56.8758 24.1907C56.5075 23.9769 56.1037 23.87 55.6641 23.87C55.189 23.87 54.7613 23.9769 54.3812 24.1907C54.0011 24.4045 53.6982 24.7075 53.4725 25.0995C53.2586 25.4915 53.1517 25.9666 53.1517 26.5249C53.1517 27.0833 53.2586 27.5584 53.4725 27.9504C53.6982 28.3424 54.0011 28.6453 54.3812 28.8592C54.7613 29.073 55.189 29.1799 55.6641 29.1799C56.1037 29.1799 56.5075 29.0789 56.8758 28.877C57.2559 28.6631 57.5707 28.3246 57.8202 27.8613L59.9762 29.0373C59.6198 29.8095 59.0674 30.4094 58.3191 30.837C57.5707 31.2528 56.6917 31.4606 55.6819 31.4606Z" fill="white"/>
<path d="M67.3511 21.5892C68.1113 21.5892 68.7884 21.7437 69.3824 22.0525C69.9882 22.3495 70.4633 22.8128 70.8078 23.4424C71.1523 24.0601 71.3246 24.8559 71.3246 25.83V31.3181H68.5449V26.2577C68.5449 25.4855 68.3727 24.9153 68.0282 24.5471C67.6956 24.1788 67.2204 23.9947 66.6027 23.9947C66.1632 23.9947 65.7652 24.0898 65.4089 24.2798C65.0644 24.458 64.7911 24.7372 64.5892 25.1173C64.3991 25.4974 64.3041 25.9844 64.3041 26.5784V31.3181H61.5244V18.0968H64.3041V24.3867L63.6805 23.5849C64.025 22.9434 64.5179 22.4505 65.1594 22.106C65.8009 21.7615 66.5314 21.5892 67.3511 21.5892Z" fill="white"/>
<path d="M78.4753 31.4606C77.4537 31.4606 76.545 31.2468 75.7491 30.8192C74.9651 30.3915 74.3415 29.8095 73.8782 29.073C73.4268 28.3246 73.2011 27.4753 73.2011 26.5249C73.2011 25.5627 73.4268 24.7134 73.8782 23.9769C74.3415 23.2285 74.9651 22.6465 75.7491 22.2307C76.545 21.8031 77.4537 21.5892 78.4753 21.5892C79.485 21.5892 80.3878 21.8031 81.1837 22.2307C81.9796 22.6465 82.6033 23.2226 83.0547 23.9591C83.5061 24.6956 83.7318 25.5509 83.7318 26.5249C83.7318 27.4753 83.5061 28.3246 83.0547 29.073C82.6033 29.8095 81.9796 30.3915 81.1837 30.8192C80.3878 31.2468 79.485 31.4606 78.4753 31.4606ZM78.4753 29.1799C78.9386 29.1799 79.3544 29.073 79.7226 28.8592C80.0909 28.6453 80.3819 28.3424 80.5957 27.9504C80.8095 27.5465 80.9164 27.0714 80.9164 26.5249C80.9164 25.9666 80.8095 25.4915 80.5957 25.0995C80.3819 24.7075 80.0909 24.4045 79.7226 24.1907C79.3544 23.9769 78.9386 23.87 78.4753 23.87C78.012 23.87 77.5963 23.9769 77.228 24.1907C76.8598 24.4045 76.5628 24.7075 76.3371 25.0995C76.1233 25.4915 76.0164 25.9666 76.0164 26.5249C76.0164 27.0714 76.1233 27.5465 76.3371 27.9504C76.5628 28.3424 76.8598 28.6453 77.228 28.8592C77.5963 29.073 78.012 29.1799 78.4753 29.1799Z" fill="white"/>
<path d="M85.7857 31.3181V18.8452H91.8796C93.4477 18.8452 94.6237 19.1422 95.4077 19.7361C96.2036 20.3301 96.6015 21.1141 96.6015 22.0882C96.6015 22.7415 96.4412 23.3117 96.1204 23.7987C95.7997 24.2739 95.3602 24.6421 94.8019 24.9035C94.2436 25.1648 93.6021 25.2955 92.8775 25.2955L93.216 24.5649C94 24.5649 94.695 24.6956 95.3008 24.9569C95.9066 25.2064 96.3758 25.5806 96.7084 26.0795C97.0529 26.5784 97.2252 27.1902 97.2252 27.9148C97.2252 28.9839 96.8035 29.8213 95.9601 30.4272C95.1167 31.0211 93.8753 31.3181 92.236 31.3181H85.7857ZM88.6545 29.1442H92.0222C92.7706 29.1442 93.3348 29.0255 93.7149 28.7879C94.1069 28.5384 94.3029 28.1464 94.3029 27.6119C94.3029 27.0892 94.1069 26.7031 93.7149 26.4537C93.3348 26.1923 92.7706 26.0617 92.0222 26.0617H88.4407V23.9591H91.5233C92.2241 23.9591 92.7587 23.8403 93.1269 23.6027C93.5071 23.3533 93.6971 22.9791 93.6971 22.4802C93.6971 21.9931 93.5071 21.6308 93.1269 21.3932C92.7587 21.1438 92.2241 21.019 91.5233 21.019H88.6545V29.1442Z" fill="white"/>
<path d="M103.972 31.4606C102.879 31.4606 101.917 31.2468 101.085 30.8192C100.266 30.3915 99.6303 29.8095 99.1789 29.073C98.7275 28.3246 98.5018 27.4753 98.5018 26.5249C98.5018 25.5627 98.7216 24.7134 99.1611 23.9769C99.6125 23.2285 100.224 22.6465 100.996 22.2307C101.769 21.8031 102.642 21.5892 103.616 21.5892C104.554 21.5892 105.398 21.7912 106.146 22.1951C106.906 22.5871 107.506 23.1573 107.946 23.9056C108.385 24.6421 108.605 25.5271 108.605 26.5606C108.605 26.6675 108.599 26.7922 108.587 26.9348C108.575 27.0654 108.563 27.1902 108.551 27.309H100.765V25.6875H107.09L106.021 26.1686C106.021 25.6697 105.92 25.2361 105.718 24.8678C105.516 24.4996 105.237 24.2145 104.881 24.0125C104.524 23.7987 104.109 23.6918 103.634 23.6918C103.158 23.6918 102.737 23.7987 102.368 24.0125C102.012 24.2145 101.733 24.5055 101.531 24.8856C101.329 25.2539 101.228 25.6934 101.228 26.2042V26.6319C101.228 27.1545 101.341 27.6178 101.567 28.0217C101.804 28.4137 102.131 28.7166 102.547 28.9304C102.974 29.1324 103.473 29.2333 104.043 29.2333C104.554 29.2333 105 29.1561 105.38 29.0017C105.772 28.8473 106.128 28.6156 106.449 28.3068L107.928 29.9104C107.488 30.4094 106.936 30.7954 106.271 31.0686C105.605 31.33 104.839 31.4606 103.972 31.4606Z" fill="white"/>
<path d="M116.075 31.3181V29.4472L115.896 29.0373V25.6875C115.896 25.0935 115.712 24.6302 115.344 24.2976C114.988 23.965 114.435 23.7987 113.687 23.7987C113.176 23.7987 112.671 23.8819 112.172 24.0482C111.685 24.2026 111.27 24.4164 110.925 24.6896L109.927 22.7474C110.45 22.3792 111.079 22.0941 111.816 21.8922C112.552 21.6902 113.301 21.5892 114.061 21.5892C115.522 21.5892 116.657 21.9337 117.464 22.6227C118.272 23.3117 118.676 24.3867 118.676 25.8478V31.3181H116.075ZM113.152 31.4606C112.404 31.4606 111.762 31.3359 111.228 31.0865C110.693 30.8251 110.284 30.4747 109.998 30.0352C109.713 29.5956 109.571 29.1027 109.571 28.5562C109.571 27.9861 109.707 27.4871 109.981 27.0595C110.266 26.6319 110.711 26.2992 111.317 26.0617C111.923 25.8122 112.713 25.6875 113.687 25.6875H116.235V27.309H113.99C113.336 27.309 112.885 27.4159 112.636 27.6297C112.398 27.8435 112.279 28.1108 112.279 28.4315C112.279 28.7879 112.416 29.073 112.689 29.2868C112.974 29.4887 113.36 29.5897 113.847 29.5897C114.311 29.5897 114.726 29.4828 115.095 29.269C115.463 29.0433 115.73 28.7166 115.896 28.289L116.324 29.5719C116.122 30.1896 115.754 30.6588 115.219 30.9795C114.685 31.3003 113.996 31.4606 113.152 31.4606Z" fill="white"/>
<path d="M125.112 31.4606C123.983 31.4606 123.104 31.1755 122.475 30.6054C121.845 30.0233 121.53 29.1621 121.53 28.0217V19.6114H124.31V27.9861C124.31 28.3899 124.417 28.7047 124.631 28.9304C124.845 29.1442 125.136 29.2512 125.504 29.2512C125.943 29.2512 126.318 29.1324 126.626 28.8948L127.375 30.8548C127.09 31.0568 126.745 31.2112 126.341 31.3181C125.949 31.4131 125.539 31.4606 125.112 31.4606ZM120.051 24.0838V21.9456H126.698V24.0838H120.051Z" fill="white"/>
<path d="M137.684 18.8452H140.571V31.3181H137.684V18.8452ZM132.018 31.3181H129.131V18.8452H132.018V31.3181ZM137.898 26.2042H131.804V23.7631H137.898V26.2042Z" fill="white"/>
<path d="M147.37 31.4606C146.574 31.4606 145.862 31.3062 145.232 30.9974C144.614 30.6885 144.133 30.2193 143.789 29.5897C143.444 28.9482 143.272 28.1345 143.272 27.1486V21.7318H146.052V26.7388C146.052 27.5347 146.218 28.1227 146.551 28.5028C146.895 28.871 147.376 29.0552 147.994 29.0552C148.422 29.0552 148.802 28.9661 149.134 28.7879C149.467 28.5978 149.728 28.3127 149.918 27.9326C150.108 27.5406 150.203 27.0536 150.203 26.4715V21.7318H152.983V31.3181H150.346V28.681L150.827 29.4472C150.506 30.1124 150.031 30.6172 149.402 30.9617C148.784 31.2943 148.107 31.4606 147.37 31.4606Z" fill="white"/>
<path d="M161.225 31.4606C160.381 31.4606 159.657 31.2825 159.051 30.9261C158.445 30.5697 157.982 30.0292 157.661 29.3046C157.34 28.5681 157.18 27.6416 157.18 26.5249C157.18 25.3964 157.346 24.4699 157.679 23.7453C158.023 23.0207 158.498 22.4802 159.104 22.1238C159.71 21.7674 160.417 21.5892 161.225 21.5892C162.127 21.5892 162.935 21.7912 163.648 22.1951C164.373 22.5989 164.943 23.1691 165.358 23.9056C165.786 24.6421 166 25.5152 166 26.5249C166 27.5228 165.786 28.3899 165.358 29.1264C164.943 29.8629 164.373 30.4391 163.648 30.8548C162.935 31.2587 162.127 31.4606 161.225 31.4606ZM155.558 31.3181V18.0968H158.338V23.674L158.16 26.5071L158.213 29.3581V31.3181H155.558ZM160.744 29.1799C161.207 29.1799 161.617 29.073 161.973 28.8592C162.341 28.6453 162.632 28.3424 162.846 27.9504C163.072 27.5465 163.185 27.0714 163.185 26.5249C163.185 25.9666 163.072 25.4915 162.846 25.0995C162.632 24.7075 162.341 24.4045 161.973 24.1907C161.617 23.9769 161.207 23.87 160.744 23.87C160.28 23.87 159.864 23.9769 159.496 24.1907C159.128 24.4045 158.837 24.7075 158.623 25.0995C158.409 25.4915 158.302 25.9666 158.302 26.5249C158.302 27.0714 158.409 27.5465 158.623 27.9504C158.837 28.3424 159.128 28.6453 159.496 28.8592C159.864 29.073 160.28 29.1799 160.744 29.1799Z" fill="white"/>
</svg>
