<svg width="166" height="38" viewBox="0 0 166 38" fill="none" xmlns="http://www.w3.org/2000/svg">
<path d="M17.3544 11.2598V26.8204M17.3544 11.2598C20.3409 13.9103 22.9867 15.783 25.2522 16.8527C26.3377 17.3639 27.319 17.4617 28.4297 16.9679C29.8312 16.3402 31.021 15.3201 31.8553 14.0309C32.6896 12.7416 33.1327 11.2383 33.1311 9.70269C30.0894 11.8483 26.3282 10.684 23.1681 8.68509C20.5808 7.05062 19.2871 6.23339 18.7065 6.317C18.5181 6.33252 18.335 6.38678 18.1686 6.47636C18.0022 6.56595 17.856 6.68894 17.7394 6.83763C17.3544 7.27623 17.3544 8.60463 17.3544 11.2598ZM17.3544 26.8204C17.3544 28.4941 16.6895 30.0993 15.5061 31.2828C14.3226 32.4662 12.7174 33.1311 11.0437 33.1311C9.37002 33.1311 7.76487 32.4662 6.58139 31.2828C5.39791 30.0993 4.73303 28.4941 4.73303 26.8204C4.73303 25.1467 5.39791 23.5416 6.58139 22.3581C7.76487 21.1746 9.37002 20.5097 11.0437 20.5097C12.7174 20.5097 14.3226 21.1746 15.5061 22.3581C16.6895 23.5416 17.3544 25.1467 17.3544 26.8204Z" stroke="#4A6CF7" stroke-width="4" stroke-linecap="round" stroke-linejoin="round"/>
<path d="M41.998 23.7341H48.0028V25.9793H41.998V23.7341ZM42.2118 28.8658H49.0006V31.1822H39.343V18.7093H48.769V21.0257H42.2118V28.8658Z" fill="#090E34"/>
<path d="M55.6819 31.3248C54.6485 31.3248 53.7279 31.1169 52.9201 30.7011C52.1123 30.2735 51.4768 29.6855 51.0135 28.9371C50.5621 28.1887 50.3364 27.3394 50.3364 26.3891C50.3364 25.4269 50.5621 24.5775 51.0135 23.841C51.4768 23.0927 52.1123 22.5106 52.9201 22.0948C53.7279 21.6672 54.6485 21.4534 55.6819 21.4534C56.6917 21.4534 57.5707 21.6672 58.3191 22.0948C59.0674 22.5106 59.6198 23.1105 59.9762 23.8945L57.8202 25.0527C57.5707 24.6013 57.2559 24.2687 56.8758 24.0549C56.5075 23.841 56.1037 23.7341 55.6641 23.7341C55.189 23.7341 54.7613 23.841 54.3812 24.0549C54.0011 24.2687 53.6982 24.5716 53.4725 24.9636C53.2586 25.3556 53.1517 25.8308 53.1517 26.3891C53.1517 26.9474 53.2586 27.4225 53.4725 27.8146C53.6982 28.2066 54.0011 28.5095 54.3812 28.7233C54.7613 28.9371 55.189 29.044 55.6641 29.044C56.1037 29.044 56.5075 28.9431 56.8758 28.7411C57.2559 28.5273 57.5707 28.1887 57.8202 27.7255L59.9762 28.9015C59.6198 29.6736 59.0674 30.2735 58.3191 30.7011C57.5707 31.1169 56.6917 31.3248 55.6819 31.3248Z" fill="#090E34"/>
<path d="M67.3511 21.4534C68.1113 21.4534 68.7884 21.6078 69.3824 21.9167C69.9882 22.2136 70.4633 22.6769 70.8078 23.3065C71.1523 23.9242 71.3246 24.7201 71.3246 25.6942V31.1822H68.5449V26.1218C68.5449 25.3497 68.3727 24.7795 68.0282 24.4112C67.6956 24.043 67.2204 23.8589 66.6027 23.8589C66.1632 23.8589 65.7652 23.9539 65.4089 24.144C65.0644 24.3221 64.7911 24.6013 64.5892 24.9814C64.3991 25.3616 64.3041 25.8486 64.3041 26.4425V31.1822H61.5244V17.961H64.3041V24.2509L63.6805 23.449C64.025 22.8076 64.5179 22.3146 65.1594 21.9701C65.8009 21.6256 66.5314 21.4534 67.3511 21.4534Z" fill="#090E34"/>
<path d="M78.4753 31.3248C77.4537 31.3248 76.545 31.111 75.7491 30.6833C74.9651 30.2557 74.3415 29.6736 73.8782 28.9371C73.4268 28.1887 73.2011 27.3394 73.2011 26.3891C73.2011 25.4269 73.4268 24.5775 73.8782 23.841C74.3415 23.0927 74.9651 22.5106 75.7491 22.0948C76.545 21.6672 77.4537 21.4534 78.4753 21.4534C79.485 21.4534 80.3878 21.6672 81.1837 22.0948C81.9796 22.5106 82.6033 23.0867 83.0547 23.8232C83.5061 24.5597 83.7318 25.415 83.7318 26.3891C83.7318 27.3394 83.5061 28.1887 83.0547 28.9371C82.6033 29.6736 81.9796 30.2557 81.1837 30.6833C80.3878 31.111 79.485 31.3248 78.4753 31.3248ZM78.4753 29.044C78.9386 29.044 79.3544 28.9371 79.7226 28.7233C80.0909 28.5095 80.3819 28.2066 80.5957 27.8146C80.8095 27.4107 80.9164 26.9355 80.9164 26.3891C80.9164 25.8308 80.8095 25.3556 80.5957 24.9636C80.3819 24.5716 80.0909 24.2687 79.7226 24.0549C79.3544 23.841 78.9386 23.7341 78.4753 23.7341C78.012 23.7341 77.5963 23.841 77.228 24.0549C76.8598 24.2687 76.5628 24.5716 76.3371 24.9636C76.1233 25.3556 76.0164 25.8308 76.0164 26.3891C76.0164 26.9355 76.1233 27.4107 76.3371 27.8146C76.5628 28.2066 76.8598 28.5095 77.228 28.7233C77.5963 28.9371 78.012 29.044 78.4753 29.044Z" fill="#090E34"/>
<path d="M85.7857 31.1822V18.7093H91.8796C93.4477 18.7093 94.6237 19.0063 95.4077 19.6003C96.2036 20.1942 96.6015 20.9782 96.6015 21.9523C96.6015 22.6056 96.4412 23.1758 96.1204 23.6629C95.7997 24.138 95.3602 24.5063 94.8019 24.7676C94.2436 25.0289 93.6021 25.1596 92.8775 25.1596L93.216 24.4291C94 24.4291 94.695 24.5597 95.3008 24.8211C95.9066 25.0705 96.3758 25.4447 96.7084 25.9436C97.0529 26.4425 97.2252 27.0543 97.2252 27.7789C97.2252 28.848 96.8035 29.6855 95.9601 30.2913C95.1167 30.8853 93.8753 31.1822 92.236 31.1822H85.7857ZM88.6545 29.0084H92.0222C92.7706 29.0084 93.3348 28.8896 93.7149 28.652C94.1069 28.4026 94.3029 28.0106 94.3029 27.476C94.3029 26.9533 94.1069 26.5673 93.7149 26.3178C93.3348 26.0565 92.7706 25.9258 92.0222 25.9258H88.4407V23.8232H91.5233C92.2241 23.8232 92.7587 23.7044 93.1269 23.4669C93.5071 23.2174 93.6971 22.8432 93.6971 22.3443C93.6971 21.8573 93.5071 21.495 93.1269 21.2574C92.7587 21.0079 92.2241 20.8832 91.5233 20.8832H88.6545V29.0084Z" fill="#090E34"/>
<path d="M103.972 31.3248C102.879 31.3248 101.917 31.111 101.085 30.6833C100.266 30.2557 99.6303 29.6736 99.1789 28.9371C98.7275 28.1887 98.5018 27.3394 98.5018 26.3891C98.5018 25.4269 98.7216 24.5775 99.1611 23.841C99.6125 23.0927 100.224 22.5106 100.996 22.0948C101.769 21.6672 102.642 21.4534 103.616 21.4534C104.554 21.4534 105.398 21.6553 106.146 22.0592C106.906 22.4512 107.506 23.0214 107.946 23.7698C108.385 24.5063 108.605 25.3912 108.605 26.4247C108.605 26.5316 108.599 26.6564 108.587 26.7989C108.575 26.9296 108.563 27.0543 108.551 27.1731H100.765V25.5516H107.09L106.021 26.0327C106.021 25.5338 105.92 25.1002 105.718 24.732C105.516 24.3637 105.237 24.0786 104.881 23.8767C104.524 23.6629 104.109 23.556 103.634 23.556C103.158 23.556 102.737 23.6629 102.368 23.8767C102.012 24.0786 101.733 24.3697 101.531 24.7498C101.329 25.118 101.228 25.5576 101.228 26.0683V26.496C101.228 27.0187 101.341 27.4819 101.567 27.8858C101.804 28.2778 102.131 28.5807 102.547 28.7946C102.974 28.9965 103.473 29.0975 104.043 29.0975C104.554 29.0975 105 29.0203 105.38 28.8658C105.772 28.7114 106.128 28.4798 106.449 28.1709L107.928 29.7746C107.488 30.2735 106.936 30.6596 106.271 30.9328C105.605 31.1941 104.839 31.3248 103.972 31.3248Z" fill="#090E34"/>
<path d="M116.075 31.1822V29.3113L115.896 28.9015V25.5516C115.896 24.9577 115.712 24.4944 115.344 24.1618C114.988 23.8292 114.435 23.6629 113.687 23.6629C113.176 23.6629 112.671 23.746 112.172 23.9123C111.685 24.0667 111.27 24.2806 110.925 24.5538L109.927 22.6116C110.45 22.2433 111.079 21.9582 111.816 21.7563C112.552 21.5543 113.301 21.4534 114.061 21.4534C115.522 21.4534 116.657 21.7979 117.464 22.4868C118.272 23.1758 118.676 24.2509 118.676 25.712V31.1822H116.075ZM113.152 31.3248C112.404 31.3248 111.762 31.2001 111.228 30.9506C110.693 30.6893 110.284 30.3388 109.998 29.8993C109.713 29.4598 109.571 28.9668 109.571 28.4204C109.571 27.8502 109.707 27.3513 109.981 26.9236C110.266 26.496 110.711 26.1634 111.317 25.9258C111.923 25.6763 112.713 25.5516 113.687 25.5516H116.235V27.1731H113.99C113.336 27.1731 112.885 27.28 112.636 27.4938C112.398 27.7076 112.279 27.9749 112.279 28.2957C112.279 28.652 112.416 28.9371 112.689 29.1509C112.974 29.3529 113.36 29.4538 113.847 29.4538C114.311 29.4538 114.726 29.3469 115.095 29.1331C115.463 28.9074 115.73 28.5807 115.896 28.1531L116.324 29.436C116.122 30.0537 115.754 30.523 115.219 30.8437C114.685 31.1644 113.996 31.3248 113.152 31.3248Z" fill="#090E34"/>
<path d="M125.112 31.3248C123.983 31.3248 123.104 31.0397 122.475 30.4695C121.845 29.8874 121.53 29.0262 121.53 27.8858V19.4755H124.31V27.8502C124.31 28.2541 124.417 28.5689 124.631 28.7946C124.845 29.0084 125.136 29.1153 125.504 29.1153C125.943 29.1153 126.318 28.9965 126.626 28.7589L127.375 30.719C127.09 30.9209 126.745 31.0753 126.341 31.1822C125.949 31.2773 125.539 31.3248 125.112 31.3248ZM120.051 23.948V21.8097H126.698V23.948H120.051Z" fill="#090E34"/>
<path d="M137.684 18.7093H140.571V31.1822H137.684V18.7093ZM132.018 31.1822H129.131V18.7093H132.018V31.1822ZM137.898 26.0683H131.804V23.6272H137.898V26.0683Z" fill="#090E34"/>
<path d="M147.37 31.3248C146.574 31.3248 145.862 31.1704 145.232 30.8615C144.614 30.5527 144.133 30.0834 143.789 29.4538C143.444 28.8124 143.272 27.9987 143.272 27.0127V21.5959H146.052V26.6029C146.052 27.3988 146.218 27.9868 146.551 28.3669C146.895 28.7352 147.376 28.9193 147.994 28.9193C148.422 28.9193 148.802 28.8302 149.134 28.652C149.467 28.462 149.728 28.1769 149.918 27.7967C150.108 27.4047 150.203 26.9177 150.203 26.3356V21.5959H152.983V31.1822H150.346V28.5451L150.827 29.3113C150.506 29.9765 150.031 30.4814 149.402 30.8259C148.784 31.1585 148.107 31.3248 147.37 31.3248Z" fill="#090E34"/>
<path d="M161.225 31.3248C160.381 31.3248 159.657 31.1466 159.051 30.7902C158.445 30.4339 157.982 29.8934 157.661 29.1688C157.34 28.4323 157.18 27.5057 157.18 26.3891C157.18 25.2606 157.346 24.334 157.679 23.6094C158.023 22.8848 158.498 22.3443 159.104 21.9879C159.71 21.6316 160.417 21.4534 161.225 21.4534C162.127 21.4534 162.935 21.6553 163.648 22.0592C164.373 22.4631 164.943 23.0333 165.358 23.7698C165.786 24.5063 166 25.3794 166 26.3891C166 27.3869 165.786 28.2541 165.358 28.9906C164.943 29.7271 164.373 30.3032 163.648 30.719C162.935 31.1228 162.127 31.3248 161.225 31.3248ZM155.558 31.1822V17.961H158.338V23.5381L158.16 26.3713L158.213 29.2222V31.1822H155.558ZM160.744 29.044C161.207 29.044 161.617 28.9371 161.973 28.7233C162.341 28.5095 162.632 28.2066 162.846 27.8146C163.072 27.4107 163.185 26.9355 163.185 26.3891C163.185 25.8308 163.072 25.3556 162.846 24.9636C162.632 24.5716 162.341 24.2687 161.973 24.0549C161.617 23.841 161.207 23.7341 160.744 23.7341C160.28 23.7341 159.864 23.841 159.496 24.0549C159.128 24.2687 158.837 24.5716 158.623 24.9636C158.409 25.3556 158.302 25.8308 158.302 26.3891C158.302 26.9355 158.409 27.4107 158.623 27.8146C158.837 28.2066 159.128 28.5095 159.496 28.7233C159.864 28.9371 160.28 29.044 160.744 29.044Z" fill="#090E34"/>
</svg>
